<svg width="32" height="32" viewBox="0 0 32 32" fill="none" xmlns="http://www.w3.org/2000/svg">
  <defs>
    <linearGradient id="carGradient" x1="0%" y1="0%" x2="100%" y2="100%">
      <stop offset="0%" style="stop-color:#3B82F6;stop-opacity:1" />
      <stop offset="100%" style="stop-color:#8B5CF6;stop-opacity:1" />
    </linearGradient>
  </defs>
  
  <!-- Background circle -->
  <circle cx="16" cy="16" r="15" fill="url(#carGradient)" stroke="white" stroke-width="2"/>
  
  <!-- Car body -->
  <path d="M8 18 L10 14 L22 14 L24 18 L24 22 L22 22 L22 20 L10 20 L10 22 L8 22 Z" fill="white"/>
  
  <!-- Car windows -->
  <path d="M11 14 L11 16 L21 16 L21 14 L20 12 L12 12 Z" fill="#E5E7EB"/>
  
  <!-- Car wheels -->
  <circle cx="12" cy="20" r="2" fill="#374151"/>
  <circle cx="20" cy="20" r="2" fill="#374151"/>
  
  <!-- Wheel centers -->
  <circle cx="12" cy="20" r="0.8" fill="#9CA3AF"/>
  <circle cx="20" cy="20" r="0.8" fill="#9CA3AF"/>
  
  <!-- Car details -->
  <rect x="13" y="15" width="6" height="0.5" fill="#D1D5DB"/>
  <rect x="9" y="18.5" width="2" height="0.5" fill="#F3F4F6"/>
  <rect x="21" y="18.5" width="2" height="0.5" fill="#F3F4F6"/>
</svg>